<?xml version="1.0" encoding="UTF-8"?>
<svg id="Ebene_2" xmlns="http://www.w3.org/2000/svg" xmlns:xlink="http://www.w3.org/1999/xlink" viewBox="0 0 42.52 56.69">
  <defs>
    <style>
      .cls-1 {
        fill: url(#Unbenannter_Verlauf_7);
      }
    </style>
    <linearGradient id="Unbenannter_Verlauf_7" data-name="Unbenannter Verlauf 7" x1="21.26" y1="56.69" x2="21.26" y2="0" gradientUnits="userSpaceOnUse">
      <stop offset=".25" stop-color="#005a5a"/>
      <stop offset=".35" stop-color="#096f65"/>
      <stop offset=".54" stop-color="#189378"/>
      <stop offset=".72" stop-color="#23ad85"/>
      <stop offset=".88" stop-color="#2abd8e"/>
      <stop offset="1" stop-color="#2dc391"/>
    </linearGradient>
  </defs>
  <g id="Logo">
    <path class="cls-1" d="M21.57.13c-.17-.17-.44-.17-.61,0-1.26,1.27-5.96,6.44-5.96,12.63s4.7,11.35,5.96,12.63c.17.17.44.17.61,0,1.26-1.27,5.96-6.44,5.96-12.63S22.83,1.4,21.57.13ZM24.66,38.55c1.79,0,8.77-.34,13.15-4.71s4.7-11.35,4.71-13.15c0-.24-.19-.44-.43-.43-1.79,0-8.77.34-13.15,4.71-4.37,4.37-4.7,11.35-4.71,13.15,0,.24.19.44.43.43ZM.43,20.27c-.24,0-.44.19-.43.43,0,1.79.34,8.77,4.71,13.15,4.37,4.37,11.35,4.7,13.15,4.71.24,0,.44-.19.43-.43,0-1.79-.34-8.77-4.71-13.15-4.37-4.37-11.35-4.7-13.15-4.71ZM42.09,38.39c-1.79,0-8.77.34-13.15,4.71-4.37,4.37-4.7,11.35-4.71,13.15,0,.24.19.44.43.43,1.79,0,8.77-.34,13.15-4.71s4.7-11.35,4.71-13.15c0-.24-.19-.44-.43-.43ZM.43,38.4c-.24,0-.44.19-.43.43,0,1.79.34,8.77,4.71,13.15,4.37,4.37,11.35,4.7,13.15,4.71.24,0,.44-.19.43-.43,0-1.79-.34-8.77-4.71-13.15-4.37-4.37-11.35-4.7-13.15-4.71Z"/>
  </g>
</svg>