<?xml version="1.0" encoding="UTF-8"?>
<svg id="Ebene_2" xmlns="http://www.w3.org/2000/svg" xmlns:xlink="http://www.w3.org/1999/xlink" viewBox="0 0 311.81 85.06">
  <defs>
    <style>
      .cls-1 {
        fill: url(#Unbenannter_Verlauf_7);
      }

      .cls-2 {
        fill: url(#Unbenannter_Verlauf_5);
      }

      .cls-3 {
        fill: #005a5a;
      }
    </style>
    <linearGradient id="Unbenannter_Verlauf_5" data-name="Unbenannter Verlauf 5" x1="148.1" y1="62.5" x2="159.76" y2="42.31" gradientUnits="userSpaceOnUse">
      <stop offset=".1" stop-color="#005a5a"/>
      <stop offset=".9" stop-color="#2dc391"/>
    </linearGradient>
    <linearGradient id="Unbenannter_Verlauf_7" data-name="Unbenannter Verlauf 7" x1="21.26" y1="56.69" x2="21.26" y2="0" gradientUnits="userSpaceOnUse">
      <stop offset=".25" stop-color="#005a5a"/>
      <stop offset=".35" stop-color="#096f65"/>
      <stop offset=".54" stop-color="#189378"/>
      <stop offset=".72" stop-color="#23ad85"/>
      <stop offset=".88" stop-color="#2abd8e"/>
      <stop offset="1" stop-color="#2dc391"/>
    </linearGradient>
  </defs>
  <g id="Logo">
    <g>
      <g>
        <g>
          <g>
            <path class="cls-3" d="M87.76,55.94h-7.26c-.23,0-.42-.19-.42-.42v-21.79c0-.23-.19-.42-.42-.42h-20.08c-.23,0-.42.19-.42.42v21.79c0,.23-.19.42-.42.42h-7.29c-.23,0-.42-.19-.42-.42V5.34c0-.23.19-.42.42-.42h7.29c.23,0,.42.19.42.42v20.39c0,.23.19.42.42.42h20.08c.23,0,.42-.19.42-.42V5.34c0-.23.19-.42.42-.42h7.26c.23,0,.42.19.42.42v50.18c0,.23-.19.42-.42.42Z"/>
            <path class="cls-3" d="M124.62,33.16h-18.38c-.23,0-.42.19-.42.42v14.85c0,.23.19.42.42.42h21.63c.23,0,.42.19.42.42v6.23c0,.23-.19.42-.42.42h-29.76c-.23,0-.42-.19-.42-.42V5.34c0-.23.19-.42.42-.42h29.53c.23,0,.42.19.42.42v6.3c0,.23-.19.42-.42.42h-21.4c-.23,0-.42.19-.42.42v13.24c0,.23.19.42.42.42h18.38c.23,0,.42.19.42.42v6.16c0,.23-.19.42-.42.42Z"/>
            <g>
              <path class="cls-3" d="M171,4.92c.23,0,.42.19.42.42v20.77c0,5.42-1.59,9.71-4.77,12.88-3.18,3.17-7.42,4.75-12.71,4.75s-9.61-1.56-12.76-4.68c-3.15-3.12-4.73-7.45-4.73-12.98V5.34c0-.23.19-.42.42-.42h7.26c.23,0,.42.19.42.42v20.81c0,3.41.79,6.02,2.38,7.81,1.59,1.8,3.92,2.7,7.01,2.7,6.26,0,9.39-3.6,9.39-10.79V5.34c0-.23.19-.42.42-.42h7.26Z"/>
              <path class="cls-2" d="M136.86,48.86h34.13c.23,0,.42.19.42.42v6.23c0,.23-.19.42-.42.42h-34.13c-.23,0-.42-.19-.42-.42v-6.23c0-.23.19-.42.42-.42Z"/>
            </g>
            <path class="cls-3" d="M189.79,48.86h23.82c.23,0,.42.19.42.42v6.23c0,.23-.19.42-.42.42h-34c-.23,0-.42-.19-.42-.42v-5.2c0-.08.02-.16.07-.23l23.73-37.37c.18-.28-.02-.65-.36-.65h-22.85c-.23,0-.42-.19-.42-.42v-6.3c0-.23.19-.42.42-.42h33.07c.23,0,.42.19.42.42v5.06c0,.08-.02.16-.07.23l-23.76,37.58c-.18.28.02.65.36.65Z"/>
            <path class="cls-3" d="M248.6,33.16h-18.38c-.23,0-.42.19-.42.42v14.85c0,.23.19.42.42.42h21.63c.23,0,.42.19.42.42v6.23c0,.23-.19.42-.42.42h-29.76c-.23,0-.42-.19-.42-.42V5.34c0-.23.19-.42.42-.42h29.53c.23,0,.42.19.42.42v6.3c0,.23-.19.42-.42.42h-21.4c-.23,0-.42.19-.42.42v13.24c0,.23.19.42.42.42h18.38c.23,0,.42.19.42.42v6.16c0,.23-.19.42-.42.42Z"/>
            <path class="cls-3" d="M267.46,55.94h-6.97c-.23,0-.42-.25-.42-.56V5.47c0-.31.19-.56.42-.56h6.97c.23,0,.42.25.42.56v49.91c0,.31-.19.56-.42.56Z"/>
            <path class="cls-3" d="M311.39,12.07h-12.75c-.23,0-.42.19-.42.42v43.03c0,.23-.19.42-.42.42h-7.22c-.23,0-.42-.19-.42-.42V12.49c0-.23-.19-.42-.42-.42h-12.62c-.23,0-.42-.19-.42-.42v-6.3c0-.23.19-.42.42-.42h34.28c.23,0,.42.19.42.42v6.3c0,.23-.19.42-.42.42Z"/>
          </g>
          <path class="cls-1" d="M21.57.13c-.17-.17-.44-.17-.61,0-1.26,1.27-5.96,6.44-5.96,12.63s4.7,11.35,5.96,12.63c.17.17.44.17.61,0,1.26-1.27,5.96-6.44,5.96-12.63S22.83,1.4,21.57.13ZM24.66,38.55c1.79,0,8.77-.34,13.15-4.71s4.7-11.35,4.71-13.15c0-.24-.19-.44-.43-.43-1.79,0-8.77.34-13.15,4.71-4.37,4.37-4.7,11.35-4.71,13.15,0,.24.19.44.43.43ZM.43,20.27c-.24,0-.44.19-.43.43,0,1.79.34,8.77,4.71,13.15,4.37,4.37,11.35,4.7,13.15,4.71.24,0,.44-.19.43-.43,0-1.79-.34-8.77-4.71-13.15-4.37-4.37-11.35-4.7-13.15-4.71ZM42.09,38.39c-1.79,0-8.77.34-13.15,4.71-4.37,4.37-4.7,11.35-4.71,13.15,0,.24.19.44.43.43,1.79,0,8.77-.34,13.15-4.71,4.37-4.37,4.7-11.35,4.71-13.15,0-.24-.19-.44-.43-.43ZM.43,38.4c-.24,0-.44.19-.43.43,0,1.79.34,8.77,4.71,13.15s11.35,4.7,13.15,4.71c.24,0,.44-.19.43-.43,0-1.79-.34-8.77-4.71-13.15-4.37-4.37-11.35-4.7-13.15-4.71Z"/>
        </g>
        <path class="cls-3" d="M309.6,48.5c.69.39,1.23.91,1.62,1.57.39.66.59,1.4.59,2.21s-.2,1.61-.59,2.29c-.39.68-.93,1.22-1.62,1.61-.69.39-1.45.59-2.28.59s-1.59-.2-2.27-.59c-.68-.39-1.22-.93-1.61-1.61-.39-.68-.59-1.44-.59-2.29s.2-1.55.59-2.21c.39-.66.93-1.18,1.61-1.57.68-.39,1.44-.58,2.27-.58s1.59.19,2.28.58ZM309.02,55.2c.51-.29.91-.69,1.2-1.2.29-.51.43-1.09.43-1.72,0-.59-.15-1.14-.44-1.63-.3-.5-.7-.89-1.2-1.18s-1.07-.43-1.69-.43-1.17.14-1.68.43-.91.68-1.2,1.18c-.29.5-.43,1.04-.43,1.63,0,.64.14,1.21.43,1.72.29.51.68.91,1.19,1.2s1.07.43,1.69.43,1.19-.14,1.7-.43ZM308.3,52.59c-.06.01-.07.06-.04.13l.49,1.31s.02.07.02.11c0,.13-.08.2-.24.2h-.42c-.15,0-.25-.07-.29-.22l-.47-1.29c-.03-.06-.07-.09-.11-.09h-.13c-.07,0-.11.04-.11.11v1.22c0,.07-.03.14-.08.19-.05.05-.12.08-.19.08h-.38c-.07,0-.14-.03-.19-.08-.05-.05-.08-.11-.08-.19v-3.53c0-.07.03-.14.08-.19.05-.05.11-.08.19-.08h1.24c.37,0,.67.12.91.37s.36.54.36.9c0,.46-.19.81-.56,1.04ZM306.99,51.16v.78c0,.07.04.11.11.11h.36c.15,0,.27-.05.35-.14s.13-.21.13-.34c0-.15-.04-.27-.13-.37-.09-.1-.21-.14-.35-.14h-.36c-.07,0-.11.04-.11.11Z"/>
      </g>
      <g>
        <path class="cls-3" d="M8.08,67.86s.1-.07.16-.07h1.73c.06,0,.12.02.16.07s.07.1.07.16v12.89c0,.06-.02.12-.07.16s-.1.07-.16.07h-2c-.13,0-.21-.06-.25-.19l-2.84-8.08s-.03-.05-.07-.05c-.03,0-.05.03-.05.07l.02,8.03c0,.06-.02.12-.07.16s-.1.07-.16.07h-1.73c-.06,0-.12-.02-.16-.07s-.07-.1-.07-.16v-12.89c0-.06.02-.12.07-.16s.1-.07.16-.07h1.96c.13,0,.21.06.25.19l2.86,8.03s.03.05.07.05c.03,0,.05-.03.05-.07v-7.97c0-.06.02-.12.07-.16Z"/>
        <path class="cls-3" d="M17.86,72.12c.62.58.93,1.35.93,2.31v6.48c0,.06-.02.12-.07.16-.04.04-.1.07-.16.07h-1.75c-.06,0-.12-.02-.16-.07s-.07-.1-.07-.16v-.36s-.01-.06-.04-.08c-.03-.01-.05,0-.08.04-.44.52-1.09.78-1.94.78-.72,0-1.36-.21-1.92-.62s-.83-1.17-.83-2.26.33-1.96,1-2.44,1.57-.72,2.72-.72h.99c.06,0,.09-.03.09-.09v-.5c0-.46-.11-.82-.34-1.1s-.51-.41-.86-.41c-.27,0-.49.09-.67.26-.18.17-.29.4-.32.7-.01.15-.09.23-.25.23h-1.85c-.15,0-.22-.08-.21-.23.06-.86.4-1.56,1.02-2.08.62-.52,1.39-.78,2.32-.78,1,0,1.82.29,2.44.88ZM16.15,79.09c.29-.24.44-.58.44-1.01v-1.09c0-.06-.03-.09-.09-.09h-.99c-.43,0-.78.12-1.05.35-.27.24-.4.58-.4,1.02,0,.39.1.69.31.89.2.2.46.3.78.3.38,0,.72-.12,1.01-.36Z"/>
        <path class="cls-3" d="M21.13,80.45c-.6-.56-.91-1.32-.91-2.27v-3.85c0-.93.3-1.67.91-2.24.6-.57,1.43-.85,2.47-.85s1.87.28,2.48.83c.61.55.91,1.26.91,2.11v.27c0,.06-.02.12-.07.16-.04.05-.1.07-.16.07l-1.75.08c-.15,0-.23-.08-.23-.23v-.19c0-.32-.11-.59-.33-.83-.22-.24-.5-.35-.85-.35s-.62.13-.84.38c-.22.25-.32.58-.32.97v3.53c0,.39.11.72.32.97.22.25.5.38.84.38s.63-.12.85-.35c.22-.24.33-.52.33-.85v-.19c0-.06.02-.12.07-.16.04-.04.1-.07.16-.07l1.75.02c.06,0,.12.02.16.07s.07.1.07.16v.34c0,.88-.31,1.59-.91,2.13-.61.54-1.44.81-2.48.81s-1.87-.28-2.47-.84Z"/>
        <path class="cls-3" d="M34.48,72.07c.43.55.64,1.34.64,2.36v6.48c0,.06-.02.12-.07.16-.04.04-.1.07-.16.07h-1.75c-.06,0-.12-.02-.16-.07s-.07-.1-.07-.16v-6.31c0-.46-.09-.81-.29-1.07-.19-.25-.46-.38-.82-.38s-.65.13-.86.4c-.2.27-.31.64-.31,1.11v6.25c0,.06-.02.12-.07.16-.05.04-.1.07-.16.07h-1.75c-.06,0-.12-.02-.16-.07-.04-.04-.07-.1-.07-.16v-12.89c0-.06.02-.12.07-.16.04-.04.1-.07.16-.07h1.75c.06,0,.12.02.16.07.04.04.07.1.07.16v3.98s.02.06.05.07c.03,0,.07-.02.1-.07.43-.51,1.04-.76,1.81-.76.83,0,1.45.28,1.88.83Z"/>
        <path class="cls-3" d="M41.58,71.47c.1.06.14.16.11.29l-.31,1.77c-.01.15-.1.2-.27.13-.18-.05-.34-.08-.5-.08s-.29.02-.42.06c-.36.05-.65.25-.87.6-.22.35-.33.77-.33,1.25v5.39c0,.06-.02.12-.07.16s-.1.07-.16.07h-1.75c-.06,0-.12-.02-.16-.07-.04-.04-.07-.1-.07-.16v-9.26c0-.06.02-.12.07-.16.04-.04.1-.07.16-.07h1.75c.06,0,.12.02.16.07.04.04.07.1.07.16v.88c0,.05.01.08.04.09.03,0,.04-.02.06-.07.34-.83.9-1.24,1.68-1.24.34,0,.61.06.8.19Z"/>
        <path class="cls-3" d="M47.23,71.46s.1-.07.16-.07h1.75c.06,0,.12.02.16.07s.07.1.07.16v9.28c0,.06-.02.12-.07.16s-.1.07-.16.07h-1.75c-.06,0-.12-.02-.16-.07s-.07-.1-.07-.16v-.42s-.01-.06-.04-.08-.05,0-.08.04c-.37.55-.96.82-1.77.82s-1.4-.23-1.88-.7c-.48-.46-.72-1.18-.72-2.14v-6.81c0-.06.02-.12.07-.16s.1-.07.16-.07h1.75c.06,0,.12.02.16.07s.07.1.07.16v6.33c0,.95.37,1.43,1.1,1.43.37,0,.66-.14.86-.41.2-.27.3-.65.3-1.12v-6.23c0-.06.02-.12.07-.16ZM43.41,69.68c-.25-.25-.38-.58-.38-.97s.13-.72.38-.97c.25-.25.58-.38.97-.38s.71.13.96.38.37.58.37.97-.13.72-.38.97-.57.38-.95.38-.72-.13-.97-.38ZM46.68,69.68c-.25-.25-.38-.58-.38-.97s.13-.72.38-.97c.25-.25.58-.38.97-.38s.71.13.96.38.37.58.37.97-.13.72-.38.97-.57.38-.95.38-.72-.13-.97-.38Z"/>
        <path class="cls-3" d="M51.72,80.52c-.6-.48-.9-1.14-.9-1.96v-.13c0-.06.02-.12.07-.16s.1-.07.16-.07h1.64c.06,0,.12.02.16.07s.07.1.07.16v.09c0,.31.12.56.35.76.23.2.52.31.87.31s.59-.1.78-.29c.19-.19.29-.43.29-.72,0-.25-.08-.47-.25-.64s-.34-.3-.53-.39c-.19-.09-.53-.23-1.03-.44-.72-.28-1.32-.64-1.78-1.07-.46-.43-.7-1.07-.7-1.92s.28-1.59.85-2.09c.57-.5,1.33-.75,2.3-.75s1.78.26,2.35.79c.58.53.87,1.24.87,2.13,0,.06-.02.12-.07.16s-.1.07-.16.07h-1.6c-.06,0-.12-.02-.16-.07s-.07-.1-.07-.16v-.11c0-.31-.11-.56-.31-.76s-.47-.31-.79-.31-.59.1-.79.31c-.2.21-.3.46-.3.75,0,.24.08.44.23.61.15.16.32.3.51.39.19.09.51.24.95.43.53.22.98.43,1.34.64.36.21.68.51.95.9s.41.87.41,1.44c0,.85-.3,1.53-.9,2.02-.6.5-1.4.74-2.42.74s-1.8-.24-2.4-.72Z"/>
        <path class="cls-3" d="M62.72,72.89s-.1.07-.16.07h-1.18c-.06,0-.09.03-.09.09v4.99c0,.44.08.75.25.92.16.17.41.25.74.24h.13c.06,0,.12.02.16.07s.07.1.07.16v1.47c0,.06-.02.12-.07.16s-.1.07-.16.07h-.65c-.86,0-1.52-.16-1.95-.48-.44-.32-.66-.91-.66-1.79v-5.81c0-.06-.03-.09-.09-.09h-.67c-.06,0-.12-.02-.16-.07s-.07-.1-.07-.16v-1.11c0-.06.02-.12.07-.16s.1-.07.16-.07h.67c.06,0,.09-.03.09-.09v-2.1c0-.06.02-.12.07-.16s.1-.07.16-.07h1.68c.06,0,.12.02.16.07s.07.1.07.16v2.1c0,.06.03.09.09.09h1.18c.06,0,.12.02.16.07s.07.1.07.16v1.11c0,.06-.02.12-.07.16Z"/>
        <path class="cls-3" d="M63.79,76.28s-.07-.1-.07-.16v-1.45c0-.06.02-.12.07-.16s.1-.07.16-.07h4.71c.06,0,.12.02.16.07s.07.1.07.16v1.45c0,.06-.02.12-.07.16s-.1.07-.16.07h-4.71c-.06,0-.12-.02-.16-.07Z"/>
        <path class="cls-3" d="M71.03,80.33c-.65-.64-.97-1.47-.97-2.5v-.5c0-.06.02-.12.07-.16.04-.04.1-.07.16-.07h1.73c.06,0,.12.02.16.07s.07.1.07.16v.38c0,.5.12.9.37,1.2.25.31.57.46.96.46s.72-.14.97-.43c.25-.29.38-.66.38-1.13,0-.33-.07-.62-.21-.86-.14-.24-.34-.47-.59-.69-.25-.22-.66-.53-1.22-.93-.64-.46-1.15-.86-1.53-1.22s-.71-.79-.97-1.29c-.26-.5-.39-1.08-.39-1.74,0-1.05.32-1.89.95-2.52.63-.62,1.47-.93,2.52-.93s1.91.33,2.55.98c.65.66.97,1.52.97,2.6v.46c0,.06-.02.12-.07.16-.04.05-.1.07-.16.07h-1.72c-.06,0-.12-.02-.16-.07-.04-.04-.07-.1-.07-.16v-.5c0-.5-.12-.89-.37-1.19s-.57-.45-.98-.45c-.38,0-.69.14-.93.41s-.36.65-.36,1.13.13.85.39,1.16c.26.32.77.76,1.53,1.32.78.57,1.36,1.04,1.75,1.4.39.36.7.76.91,1.19.22.43.32.95.32,1.54,0,1.08-.32,1.95-.97,2.6-.65.66-1.5.98-2.55.98s-1.91-.32-2.55-.95Z"/>
        <path class="cls-3" d="M85.08,77.01s-.1.07-.16.07h-4.21c-.06,0-.09.03-.09.09v.86c0,.39.11.72.32.97.22.25.5.38.84.38.29,0,.54-.09.75-.28.21-.18.35-.42.41-.71.04-.13.12-.19.25-.19l1.7.08c.06,0,.12.02.16.07s.06.1.05.18c-.09.89-.41,1.57-.97,2.05-.56.48-1.34.71-2.34.71s-1.87-.28-2.47-.83c-.6-.55-.91-1.31-.91-2.26v-3.87c0-.93.3-1.67.91-2.24.6-.57,1.43-.85,2.47-.85s1.86.28,2.47.85c.6.57.91,1.31.91,2.24v2.52c0,.06-.02.12-.07.16ZM80.94,73.53c-.22.25-.32.58-.32.97v.86c0,.06.03.1.09.1h2.15c.06,0,.09-.03.09-.1v-.86c0-.41-.11-.73-.32-.98-.22-.25-.5-.37-.86-.37s-.62.13-.84.38Z"/>
        <path class="cls-3" d="M90.63,72.89s-.1.07-.16.07h-1.18c-.06,0-.09.03-.09.09v4.99c0,.44.08.75.25.92.16.17.41.25.74.24h.13c.06,0,.12.02.16.07s.07.1.07.16v1.47c0,.06-.02.12-.07.16s-.1.07-.16.07h-.65c-.86,0-1.52-.16-1.95-.48-.44-.32-.66-.91-.66-1.79v-5.81c0-.06-.03-.09-.09-.09h-.67c-.06,0-.12-.02-.16-.07s-.07-.1-.07-.16v-1.11c0-.06.02-.12.07-.16s.1-.07.16-.07h.67c.06,0,.09-.03.09-.09v-2.1c0-.06.02-.12.07-.16s.1-.07.16-.07h1.68c.06,0,.12.02.16.07s.07.1.07.16v2.1c0,.06.03.09.09.09h1.18c.06,0,.12.02.16.07s.07.1.07.16v1.11c0,.06-.02.12-.07.16Z"/>
        <path class="cls-3" d="M99.91,71.46s.07.1.07.16v1.13c0,.06-.02.12-.07.16s-.1.07-.16.07h-1.18c-.06,0-.1.03-.1.09v7.83c0,.06-.02.12-.07.16-.05.04-.1.07-.16.07h-1.73c-.06,0-.12-.02-.16-.07s-.07-.1-.07-.16v-7.83c0-.06-.03-.09-.09-.09h-.61c-.06,0-.12-.02-.16-.07-.05-.04-.07-.1-.07-.16v-1.13c0-.06.02-.12.07-.16.04-.04.1-.07.16-.07h.61c.06,0,.09-.03.09-.09v-.48c0-1.14.26-1.95.78-2.42.52-.47,1.35-.7,2.5-.69h.15c.06,0,.12.02.16.07s.07.1.07.16l-.04,1.3c0,.06-.02.12-.07.16s-.1.07-.16.07h-.1c-.38.01-.66.14-.84.37-.18.24-.27.59-.27,1.08v.38c0,.06.03.09.1.09h1.18c.06,0,.12.02.16.07Z"/>
        <path class="cls-3" d="M105.82,71.46s.1-.07.16-.07h1.75c.06,0,.12.02.16.07s.07.1.07.16v9.28c0,.06-.02.12-.07.16s-.1.07-.16.07h-1.75c-.06,0-.12-.02-.16-.07s-.07-.1-.07-.16v-.42s-.01-.06-.04-.08-.05,0-.08.04c-.37.55-.96.82-1.77.82s-1.4-.23-1.88-.7c-.48-.46-.72-1.18-.72-2.14v-6.81c0-.06.02-.12.07-.16s.1-.07.16-.07h1.75c.06,0,.12.02.16.07s.07.1.07.16v6.33c0,.95.37,1.43,1.1,1.43.37,0,.66-.14.86-.41.2-.27.3-.65.3-1.12v-6.23c0-.06.02-.12.07-.16ZM102,69.68c-.25-.25-.38-.58-.38-.97s.13-.72.38-.97c.25-.25.58-.38.97-.38s.71.13.96.38.37.58.37.97-.13.72-.38.97-.57.38-.95.38-.72-.13-.97-.38ZM105.28,69.68c-.25-.25-.38-.58-.38-.97s.13-.72.38-.97c.25-.25.58-.38.97-.38s.71.13.96.38.37.58.37.97-.13.72-.38.97-.57.38-.95.38-.72-.13-.97-.38Z"/>
        <path class="cls-3" d="M114.51,71.47c.1.06.14.16.11.29l-.31,1.77c-.01.15-.1.2-.27.13-.18-.05-.34-.08-.5-.08s-.29.02-.42.06c-.36.05-.65.25-.87.6-.22.35-.33.77-.33,1.25v5.39c0,.06-.02.12-.07.16s-.1.07-.16.07h-1.75c-.06,0-.12-.02-.16-.07-.04-.04-.07-.1-.07-.16v-9.26c0-.06.02-.12.07-.16.04-.04.1-.07.16-.07h1.75c.06,0,.12.02.16.07.04.04.07.1.07.16v.88c0,.05.01.08.04.09.03,0,.04-.02.06-.07.34-.83.9-1.24,1.68-1.24.34,0,.61.06.8.19Z"/>
        <path class="cls-3" d="M119.15,81.07s-.07-.1-.07-.16v-1.62c0-.1.03-.2.08-.29l3.28-5.49c.04-.08.02-.11-.06-.11h-2.99c-.06,0-.12-.02-.16-.07-.05-.04-.07-.1-.07-.16v-1.54c0-.06.02-.12.07-.16.04-.04.1-.07.16-.07h5.51c.06,0,.12.02.16.07s.07.1.07.16v1.62c0,.1-.03.2-.08.29l-3.37,5.49c-.04.08-.02.11.06.11h3.26c.06,0,.12.02.16.07.04.04.07.1.07.16v1.54c0,.06-.02.12-.07.16-.05.04-.1.07-.16.07h-5.68c-.06,0-.12-.02-.16-.07Z"/>
        <path class="cls-3" d="M133.04,77.01s-.1.07-.16.07h-4.21c-.06,0-.09.03-.09.09v.86c0,.39.11.72.32.97.22.25.5.38.84.38.29,0,.54-.09.75-.28.21-.18.35-.42.41-.71.04-.13.12-.19.25-.19l1.7.08c.06,0,.12.02.16.07s.06.1.05.18c-.09.89-.41,1.57-.97,2.05-.56.48-1.34.71-2.34.71s-1.87-.28-2.47-.83c-.6-.55-.91-1.31-.91-2.26v-3.87c0-.93.3-1.67.91-2.24.6-.57,1.43-.85,2.47-.85s1.86.28,2.47.85c.6.57.91,1.31.91,2.24v2.52c0,.06-.02.12-.07.16ZM128.9,73.53c-.22.25-.32.58-.32.97v.86c0,.06.03.1.09.1h2.15c.06,0,.09-.03.09-.1v-.86c0-.41-.11-.73-.32-.98-.22-.25-.5-.37-.86-.37s-.62.13-.84.38Z"/>
        <path class="cls-3" d="M134.82,69.68c-.25-.25-.38-.58-.38-.97s.13-.72.38-.97c.25-.25.58-.38.97-.38s.71.13.96.38.37.58.37.97-.13.72-.38.97-.57.38-.95.38-.72-.13-.97-.38ZM134.78,81.07s-.07-.1-.07-.16v-9.28c0-.06.02-.12.07-.16s.1-.07.16-.07h1.75c.06,0,.12.02.16.07s.07.1.07.16v9.28c0,.06-.02.12-.07.16s-.1.07-.16.07h-1.75c-.06,0-.12-.02-.16-.07Z"/>
        <path class="cls-3" d="M142.74,72.89s-.1.07-.16.07h-1.18c-.06,0-.09.03-.09.09v4.99c0,.44.08.75.25.92.16.17.41.25.74.24h.13c.06,0,.12.02.16.07s.07.1.07.16v1.47c0,.06-.02.12-.07.16s-.1.07-.16.07h-.65c-.86,0-1.52-.16-1.95-.48-.44-.32-.66-.91-.66-1.79v-5.81c0-.06-.03-.09-.09-.09h-.67c-.06,0-.12-.02-.16-.07s-.07-.1-.07-.16v-1.11c0-.06.02-.12.07-.16s.1-.07.16-.07h.67c.06,0,.09-.03.09-.09v-2.1c0-.06.02-.12.07-.16s.1-.07.16-.07h1.68c.06,0,.12.02.16.07s.07.1.07.16v2.1c0,.06.03.09.09.09h1.18c.06,0,.12.02.16.07s.07.1.07.16v1.11c0,.06-.02.12-.07.16Z"/>
        <path class="cls-3" d="M148.54,71.46s.1-.07.16-.07h1.75c.06,0,.12.02.16.07.04.04.07.1.07.16v9.15c0,1.37-.31,2.43-.93,3.17-.62.74-1.73,1.12-3.34,1.12-.28,0-.49,0-.63-.02-.15-.01-.23-.09-.23-.25v-1.47c0-.17.08-.24.25-.21.72.01,1.28-.08,1.67-.27.39-.19.65-.47.79-.84.14-.37.21-.85.21-1.45v-.21s-.01-.06-.04-.07c-.03,0-.05,0-.08.05-.42.55-1.02.82-1.79.82-.85,0-1.5-.28-1.94-.83s-.67-1.31-.67-2.26v-3.74c0-.98.23-1.74.68-2.28.45-.54,1.1-.81,1.93-.81.78,0,1.37.27,1.79.82.03.04.05.05.08.05.03,0,.04-.03.04-.07v-.42c0-.06.02-.12.07-.16ZM148.16,78.87c.21-.25.31-.57.31-.96v-3.41c0-.41-.1-.73-.31-.98-.21-.25-.49-.37-.83-.37s-.62.13-.84.38c-.22.25-.32.58-.32.97v3.41c0,.39.11.72.32.96.22.25.5.37.84.37s.62-.12.83-.37Z"/>
        <path class="cls-3" d="M158.85,77.01s-.1.07-.16.07h-4.21c-.06,0-.09.03-.09.09v.86c0,.39.11.72.32.97.22.25.5.38.84.38.29,0,.54-.09.75-.28.21-.18.35-.42.41-.71.04-.13.12-.19.25-.19l1.7.08c.06,0,.12.02.16.07s.06.1.05.18c-.09.89-.41,1.57-.97,2.05-.56.48-1.34.71-2.34.71s-1.87-.28-2.47-.83c-.6-.55-.91-1.31-.91-2.26v-3.87c0-.93.3-1.67.91-2.24.6-.57,1.43-.85,2.47-.85s1.87.28,2.47.85c.6.57.91,1.31.91,2.24v2.52c0,.06-.02.12-.07.16ZM154.7,73.53c-.22.25-.32.58-.32.97v.86c0,.06.03.1.09.1h2.15c.06,0,.09-.03.09-.1v-.86c0-.41-.11-.73-.32-.98-.22-.25-.5-.37-.86-.37s-.62.13-.84.38Z"/>
        <path class="cls-3" d="M161.02,80.52c-.6-.48-.9-1.14-.9-1.96v-.13c0-.06.02-.12.07-.16s.1-.07.16-.07h1.64c.06,0,.12.02.16.07s.07.1.07.16v.09c0,.31.12.56.35.76.23.2.52.31.87.31s.59-.1.78-.29c.19-.19.29-.43.29-.72,0-.25-.08-.47-.25-.64s-.34-.3-.53-.39c-.19-.09-.53-.23-1.03-.44-.72-.28-1.32-.64-1.78-1.07-.46-.43-.7-1.07-.7-1.92s.28-1.59.85-2.09c.57-.5,1.33-.75,2.3-.75s1.78.26,2.35.79c.58.53.87,1.24.87,2.13,0,.06-.02.12-.07.16s-.1.07-.16.07h-1.6c-.06,0-.12-.02-.16-.07s-.07-.1-.07-.16v-.11c0-.31-.11-.56-.31-.76s-.47-.31-.79-.31-.59.1-.79.31c-.2.21-.3.46-.3.75,0,.24.08.44.23.61.15.16.32.3.51.39.19.09.51.24.95.43.53.22.98.43,1.34.64.36.21.68.51.95.9s.41.87.41,1.44c0,.85-.3,1.53-.9,2.02-.6.5-1.4.74-2.42.74s-1.8-.24-2.4-.72Z"/>
        <path class="cls-3" d="M172.02,72.89s-.1.07-.16.07h-1.18c-.06,0-.09.03-.09.09v4.99c0,.44.08.75.25.92.16.17.41.25.74.24h.13c.06,0,.12.02.16.07s.07.1.07.16v1.47c0,.06-.02.12-.07.16s-.1.07-.16.07h-.65c-.86,0-1.52-.16-1.95-.48-.44-.32-.66-.91-.66-1.79v-5.81c0-.06-.03-.09-.09-.09h-.67c-.06,0-.12-.02-.16-.07s-.07-.1-.07-.16v-1.11c0-.06.02-.12.07-.16s.1-.07.16-.07h.67c.06,0,.09-.03.09-.09v-2.1c0-.06.02-.12.07-.16s.1-.07.16-.07h1.68c.06,0,.12.02.16.07s.07.1.07.16v2.1c0,.06.03.09.09.09h1.18c.06,0,.12.02.16.07s.07.1.07.16v1.11c0,.06-.02.12-.07.16Z"/>
        <path class="cls-3" d="M179.91,77.01s-.1.07-.16.07h-4.21c-.06,0-.09.03-.09.09v.86c0,.39.11.72.32.97.22.25.5.38.84.38.29,0,.54-.09.75-.28.21-.18.35-.42.41-.71.04-.13.12-.19.25-.19l1.7.08c.06,0,.12.02.16.07s.06.1.05.18c-.09.89-.41,1.57-.97,2.05-.56.48-1.34.71-2.34.71s-1.87-.28-2.47-.83c-.6-.55-.91-1.31-.91-2.26v-3.87c0-.93.3-1.67.91-2.24.6-.57,1.43-.85,2.47-.85s1.86.28,2.47.85c.6.57.91,1.31.91,2.24v2.52c0,.06-.02.12-.07.16ZM175.77,73.53c-.22.25-.32.58-.32.97v.86c0,.06.03.1.09.1h2.15c.06,0,.09-.03.09-.1v-.86c0-.41-.11-.73-.32-.98-.22-.25-.5-.37-.86-.37s-.62.13-.84.38Z"/>
        <path class="cls-3" d="M185.98,71.46s.1-.07.16-.07h1.75c.06,0,.12.02.16.07s.07.1.07.16v9.28c0,.06-.02.12-.07.16s-.1.07-.16.07h-1.75c-.06,0-.12-.02-.16-.07s-.07-.1-.07-.16v-.42s-.01-.06-.04-.08-.05,0-.08.04c-.37.55-.96.82-1.77.82s-1.4-.23-1.88-.7c-.48-.46-.72-1.18-.72-2.14v-6.81c0-.06.02-.12.07-.16s.1-.07.16-.07h1.75c.06,0,.12.02.16.07s.07.1.07.16v6.33c0,.95.37,1.43,1.1,1.43.37,0,.66-.14.86-.41.2-.27.3-.65.3-1.12v-6.23c0-.06.02-.12.07-.16Z"/>
        <path class="cls-3" d="M196.38,77.01s-.1.07-.16.07h-4.21c-.06,0-.09.03-.09.09v.86c0,.39.11.72.32.97.22.25.5.38.84.38.29,0,.54-.09.75-.28.21-.18.35-.42.41-.71.04-.13.12-.19.25-.19l1.7.08c.06,0,.12.02.16.07s.06.1.05.18c-.09.89-.41,1.57-.97,2.05-.56.48-1.34.71-2.34.71s-1.87-.28-2.47-.83c-.6-.55-.91-1.31-.91-2.26v-3.87c0-.93.3-1.67.91-2.24.6-.57,1.43-.85,2.47-.85s1.86.28,2.47.85c.6.57.91,1.31.91,2.24v2.52c0,.06-.02.12-.07.16ZM192.24,73.53c-.22.25-.32.58-.32.97v.86c0,.06.03.1.09.1h2.15c.06,0,.09-.03.09-.1v-.86c0-.41-.11-.73-.32-.98-.22-.25-.5-.37-.86-.37s-.62.13-.84.38Z"/>
        <path class="cls-3" d="M202.76,71.47c.1.06.14.16.11.29l-.31,1.77c-.01.15-.1.2-.27.13-.18-.05-.34-.08-.5-.08s-.29.02-.42.06c-.36.05-.65.25-.87.6-.22.35-.33.77-.33,1.25v5.39c0,.06-.02.12-.07.16s-.1.07-.16.07h-1.75c-.06,0-.12-.02-.16-.07-.04-.04-.07-.1-.07-.16v-9.26c0-.06.02-.12.07-.16.04-.04.1-.07.16-.07h1.75c.06,0,.12.02.16.07.04.04.07.1.07.16v.88c0,.05.01.08.04.09.03,0,.04-.02.06-.07.34-.83.9-1.24,1.68-1.24.34,0,.61.06.8.19Z"/>
        <path class="cls-3" d="M207.95,72.89s-.1.07-.16.07h-1.18c-.06,0-.09.03-.09.09v4.99c0,.44.08.75.25.92.16.17.41.25.74.24h.13c.06,0,.12.02.16.07s.07.1.07.16v1.47c0,.06-.02.12-.07.16s-.1.07-.16.07h-.65c-.86,0-1.52-.16-1.95-.48-.44-.32-.66-.91-.66-1.79v-5.81c0-.06-.03-.09-.09-.09h-.67c-.06,0-.12-.02-.16-.07s-.07-.1-.07-.16v-1.11c0-.06.02-.12.07-.16s.1-.07.16-.07h.67c.06,0,.09-.03.09-.09v-2.1c0-.06.02-.12.07-.16s.1-.07.16-.07h1.68c.06,0,.12.02.16.07s.07.1.07.16v2.1c0,.06.03.09.09.09h1.18c.06,0,.12.02.16.07s.07.1.07.16v1.11c0,.06-.02.12-.07.16Z"/>
        <path class="cls-3" d="M215.85,77.01s-.1.07-.16.07h-4.21c-.06,0-.09.03-.09.09v.86c0,.39.11.72.32.97.22.25.5.38.84.38.29,0,.54-.09.75-.28.21-.18.35-.42.41-.71.04-.13.12-.19.25-.19l1.7.08c.06,0,.12.02.16.07s.06.1.05.18c-.09.89-.41,1.57-.97,2.05-.56.48-1.34.71-2.34.71s-1.87-.28-2.47-.83c-.6-.55-.91-1.31-.91-2.26v-3.87c0-.93.3-1.67.91-2.24.6-.57,1.43-.85,2.47-.85s1.86.28,2.47.85c.6.57.91,1.31.91,2.24v2.52c0,.06-.02.12-.07.16ZM211.7,73.53c-.22.25-.32.58-.32.97v.86c0,.06.03.1.09.1h2.15c.06,0,.09-.03.09-.1v-.86c0-.41-.11-.73-.32-.98-.22-.25-.5-.37-.86-.37s-.62.13-.84.38Z"/>
        <path class="cls-3" d="M226.29,67.86s.1-.07.16-.07h1.75c.06,0,.12.02.16.07s.07.1.07.16v12.89c0,.06-.02.12-.07.16s-.1.07-.16.07h-1.75c-.06,0-.12-.02-.16-.07s-.07-.1-.07-.16v-5.39c0-.06-.03-.1-.09-.1h-2.42c-.06,0-.09.03-.09.1v5.39c0,.06-.02.12-.07.16s-.1.07-.16.07h-1.75c-.06,0-.12-.02-.16-.07s-.07-.1-.07-.16v-12.89c0-.06.02-.12.07-.16s.1-.07.16-.07h1.75c.06,0,.12.02.16.07s.07.1.07.16v5.37c0,.06.03.1.09.1h2.42c.06,0,.09-.03.09-.1v-5.37c0-.06.02-.12.07-.16Z"/>
        <path class="cls-3" d="M236.87,77.01s-.1.07-.16.07h-4.21c-.06,0-.09.03-.09.09v.86c0,.39.11.72.32.97.22.25.5.38.84.38.29,0,.54-.09.75-.28.21-.18.35-.42.41-.71.04-.13.12-.19.25-.19l1.7.08c.06,0,.12.02.16.07s.06.1.05.18c-.09.89-.41,1.57-.97,2.05-.56.48-1.34.71-2.34.71s-1.87-.28-2.47-.83c-.6-.55-.91-1.31-.91-2.26v-3.87c0-.93.3-1.67.91-2.24.6-.57,1.43-.85,2.47-.85s1.86.28,2.47.85c.6.57.91,1.31.91,2.24v2.52c0,.06-.02.12-.07.16ZM232.72,73.53c-.22.25-.32.58-.32.97v.86c0,.06.03.1.09.1h2.15c.06,0,.09-.03.09-.1v-.86c0-.41-.11-.73-.32-.98-.22-.25-.5-.37-.86-.37s-.62.13-.84.38Z"/>
        <path class="cls-3" d="M242.93,71.46s.1-.07.16-.07h1.75c.06,0,.12.02.16.07s.07.1.07.16v9.28c0,.06-.02.12-.07.16s-.1.07-.16.07h-1.75c-.06,0-.12-.02-.16-.07s-.07-.1-.07-.16v-.42s-.01-.06-.04-.08-.05,0-.08.04c-.37.55-.96.82-1.77.82s-1.4-.23-1.88-.7c-.48-.46-.72-1.18-.72-2.14v-6.81c0-.06.02-.12.07-.16s.1-.07.16-.07h1.75c.06,0,.12.02.16.07s.07.1.07.16v6.33c0,.95.37,1.43,1.1,1.43.37,0,.66-.14.86-.41.2-.27.3-.65.3-1.12v-6.23c0-.06.02-.12.07-.16Z"/>
        <path class="cls-3" d="M250.92,71.46s.07.1.07.16v1.13c0,.06-.02.12-.07.16s-.1.07-.16.07h-1.18c-.06,0-.1.03-.1.09v7.83c0,.06-.02.12-.07.16-.05.04-.1.07-.16.07h-1.73c-.06,0-.12-.02-.16-.07s-.07-.1-.07-.16v-7.83c0-.06-.03-.09-.09-.09h-.61c-.06,0-.12-.02-.16-.07-.05-.04-.07-.1-.07-.16v-1.13c0-.06.02-.12.07-.16.04-.04.1-.07.16-.07h.61c.06,0,.09-.03.09-.09v-.48c0-1.14.26-1.95.78-2.42.52-.47,1.35-.7,2.5-.69h.15c.06,0,.12.02.16.07s.07.1.07.16l-.04,1.3c0,.06-.02.12-.07.16s-.1.07-.16.07h-.1c-.38.01-.66.14-.84.37-.18.24-.27.59-.27,1.08v.38c0,.06.03.09.1.09h1.18c.06,0,.12.02.16.07Z"/>
        <path class="cls-3" d="M256.83,71.46s.1-.07.16-.07h1.75c.06,0,.12.02.16.07s.07.1.07.16v9.28c0,.06-.02.12-.07.16s-.1.07-.16.07h-1.75c-.06,0-.12-.02-.16-.07s-.07-.1-.07-.16v-.42s-.01-.06-.04-.08-.05,0-.08.04c-.37.55-.96.82-1.77.82s-1.4-.23-1.88-.7c-.48-.46-.72-1.18-.72-2.14v-6.81c0-.06.02-.12.07-.16s.1-.07.16-.07h1.75c.06,0,.12.02.16.07s.07.1.07.16v6.33c0,.95.37,1.43,1.1,1.43.37,0,.66-.14.86-.41.2-.27.3-.65.3-1.12v-6.23c0-.06.02-.12.07-.16ZM253.01,69.68c-.25-.25-.38-.58-.38-.97s.13-.72.38-.97c.25-.25.58-.38.97-.38s.71.13.96.38.37.58.37.97-.13.72-.38.97-.57.38-.95.38-.72-.13-.97-.38ZM256.29,69.68c-.25-.25-.38-.58-.38-.97s.13-.72.38-.97c.25-.25.58-.38.97-.38s.71.13.96.38.37.58.37.97-.13.72-.38.97-.57.38-.95.38-.72-.13-.97-.38Z"/>
        <path class="cls-3" d="M264.74,72.89s-.1.07-.16.07h-1.18c-.06,0-.09.03-.09.09v4.99c0,.44.08.75.25.92.16.17.41.25.74.24h.13c.06,0,.12.02.16.07s.07.1.07.16v1.47c0,.06-.02.12-.07.16s-.1.07-.16.07h-.65c-.86,0-1.52-.16-1.95-.48-.44-.32-.66-.91-.66-1.79v-5.81c0-.06-.03-.09-.09-.09h-.67c-.06,0-.12-.02-.16-.07s-.07-.1-.07-.16v-1.11c0-.06.02-.12.07-.16s.1-.07.16-.07h.67c.06,0,.09-.03.09-.09v-2.1c0-.06.02-.12.07-.16s.1-.07.16-.07h1.68c.06,0,.12.02.16.07s.07.1.07.16v2.1c0,.06.03.09.09.09h1.18c.06,0,.12.02.16.07s.07.1.07.16v1.11c0,.06-.02.12-.07.16Z"/>
        <path class="cls-3" d="M270.11,72.89s-.1.07-.16.07h-1.18c-.06,0-.09.03-.09.09v4.99c0,.44.08.75.25.92.16.17.41.25.74.24h.13c.06,0,.12.02.16.07s.07.1.07.16v1.47c0,.06-.02.12-.07.16s-.1.07-.16.07h-.65c-.86,0-1.52-.16-1.95-.48-.44-.32-.66-.91-.66-1.79v-5.81c0-.06-.03-.09-.09-.09h-.67c-.06,0-.12-.02-.16-.07s-.07-.1-.07-.16v-1.11c0-.06.02-.12.07-.16s.1-.07.16-.07h.67c.06,0,.09-.03.09-.09v-2.1c0-.06.02-.12.07-.16s.1-.07.16-.07h1.68c.06,0,.12.02.16.07s.07.1.07.16v2.1c0,.06.03.09.09.09h1.18c.06,0,.12.02.16.07s.07.1.07.16v1.11c0,.06-.02.12-.07.16Z"/>
        <path class="cls-3" d="M278,77.01s-.1.07-.16.07h-4.21c-.06,0-.09.03-.09.09v.86c0,.39.11.72.32.97.22.25.5.38.84.38.29,0,.54-.09.75-.28.21-.18.35-.42.41-.71.04-.13.12-.19.25-.19l1.7.08c.06,0,.12.02.16.07s.06.1.05.18c-.09.89-.41,1.57-.97,2.05-.56.48-1.34.71-2.34.71s-1.87-.28-2.47-.83c-.6-.55-.91-1.31-.91-2.26v-3.87c0-.93.3-1.67.91-2.24.6-.57,1.43-.85,2.47-.85s1.86.28,2.47.85c.6.57.91,1.31.91,2.24v2.52c0,.06-.02.12-.07.16ZM273.86,73.53c-.22.25-.32.58-.32.97v.86c0,.06.03.1.09.1h2.15c.06,0,.09-.03.09-.1v-.86c0-.41-.11-.73-.32-.98-.22-.25-.5-.37-.86-.37s-.62.13-.84.38Z"/>
        <path class="cls-3" d="M284.38,71.47c.1.06.14.16.11.29l-.31,1.77c-.01.15-.1.2-.27.13-.18-.05-.34-.08-.5-.08s-.29.02-.42.06c-.36.05-.65.25-.87.6-.22.35-.33.77-.33,1.25v5.39c0,.06-.02.12-.07.16s-.1.07-.16.07h-1.75c-.06,0-.12-.02-.16-.07-.04-.04-.07-.1-.07-.16v-9.26c0-.06.02-.12.07-.16.04-.04.1-.07.16-.07h1.75c.06,0,.12.02.16.07.04.04.07.1.07.16v.88c0,.05.01.08.04.09.03,0,.04-.02.06-.07.34-.83.9-1.24,1.68-1.24.34,0,.61.06.8.19Z"/>
        <path class="cls-3" d="M290.03,71.46s.1-.07.16-.07h1.75c.06,0,.12.02.16.07s.07.1.07.16v9.28c0,.06-.02.12-.07.16s-.1.07-.16.07h-1.75c-.06,0-.12-.02-.16-.07s-.07-.1-.07-.16v-.42s-.01-.06-.04-.08-.05,0-.08.04c-.37.55-.96.82-1.77.82s-1.4-.23-1.88-.7c-.48-.46-.72-1.18-.72-2.14v-6.81c0-.06.02-.12.07-.16s.1-.07.16-.07h1.75c.06,0,.12.02.16.07s.07.1.07.16v6.33c0,.95.37,1.43,1.1,1.43.37,0,.66-.14.86-.41.2-.27.3-.65.3-1.12v-6.23c0-.06.02-.12.07-.16Z"/>
        <path class="cls-3" d="M299.96,72.07c.43.55.64,1.34.64,2.36v6.48c0,.06-.02.12-.07.16-.04.04-.1.07-.16.07h-1.75c-.06,0-.12-.02-.16-.07s-.07-.1-.07-.16v-6.31c0-.46-.09-.81-.29-1.07-.19-.25-.46-.38-.82-.38s-.65.13-.86.4c-.2.27-.31.64-.31,1.11v6.25c0,.06-.02.12-.07.16-.05.04-.1.07-.16.07h-1.75c-.06,0-.12-.02-.16-.07-.04-.04-.07-.1-.07-.16v-9.28c0-.06.02-.12.07-.16.04-.04.1-.07.16-.07h1.75c.06,0,.12.02.16.07.04.04.07.1.07.16v.38s.02.06.05.07c.03,0,.07-.02.1-.07.43-.51,1.04-.76,1.81-.76.83,0,1.45.28,1.88.83Z"/>
        <path class="cls-3" d="M306.71,71.46s.1-.07.16-.07h1.75c.06,0,.12.02.16.07.04.04.07.1.07.16v9.15c0,1.37-.31,2.43-.93,3.17-.62.74-1.73,1.12-3.34,1.12-.28,0-.49,0-.63-.02-.15-.01-.23-.09-.23-.25v-1.47c0-.17.08-.24.25-.21.72.01,1.28-.08,1.67-.27.39-.19.65-.47.79-.84.14-.37.21-.85.21-1.45v-.21s-.01-.06-.04-.07c-.03,0-.05,0-.08.05-.42.55-1.02.82-1.79.82-.85,0-1.5-.28-1.94-.83s-.67-1.31-.67-2.26v-3.74c0-.98.23-1.74.68-2.28.45-.54,1.1-.81,1.93-.81.78,0,1.37.27,1.79.82.03.04.05.05.08.05.03,0,.04-.03.04-.07v-.42c0-.06.02-.12.07-.16ZM306.33,78.87c.21-.25.31-.57.31-.96v-3.41c0-.41-.1-.73-.31-.98-.21-.25-.49-.37-.83-.37s-.62.13-.84.38c-.22.25-.32.58-.32.97v3.41c0,.39.11.72.32.96.22.25.5.37.84.37s.62-.12.83-.37Z"/>
      </g>
    </g>
  </g>
</svg>